<svg width="16" height="19" viewBox="0 0 16 19" fill="none" xmlns="http://www.w3.org/2000/svg">
<path fill-rule="evenodd" clip-rule="evenodd" d="M0 2.19995C0 1.09538 0.89543 0.199951 2 0.199951H13.6667C14.7712 0.199951 15.6667 1.09538 15.6667 2.19995V17C15.6667 18.1045 14.7712 19 13.6667 19H2C0.895432 19 0 18.1045 0 17V2.19995ZM2 4C2 3.44772 2.44772 3 3 3H13C13.5523 3 14 3.44772 14 4V7C14 7.55228 13.5523 8 13 8H3C2.44772 8 2 7.55228 2 7V4ZM2.88 14.3C2.32772 14.3 1.88 14.7477 1.88 15.3V15.65C1.88 16.2023 2.32772 16.65 2.88 16.65H4.01333C4.56562 16.65 5.01333 16.2023 5.01333 15.65V15.3C5.01333 14.7477 4.56562 14.3 4.01333 14.3H2.88ZM6 15.3C6 14.7478 6.44772 14.3 7 14.3H8.13333C8.68562 14.3 9.13333 14.7478 9.13333 15.3V15.65C9.13333 16.2023 8.68562 16.65 8.13333 16.65H7C6.44772 16.65 6 16.2023 6 15.65V15.3ZM12 10C11.4477 10 11 10.4477 11 11V16C11 16.5523 11.4477 17 12 17H13C13.5523 17 14 16.5523 14 16V11C14 10.4477 13.5523 10 13 10H12ZM1.87988 11C1.87988 10.4477 2.3276 10 2.87988 10H4.01322C4.5655 10 5.01322 10.4477 5.01322 11V11.35C5.01322 11.9023 4.5655 12.35 4.01322 12.35H2.87988C2.3276 12.35 1.87988 11.9023 1.87988 11.35V11ZM7 10C6.44772 10 6 10.4477 6 11V11.35C6 11.9023 6.44772 12.35 7 12.35H8.13333C8.68562 12.35 9.13333 11.9023 9.13333 11.35V11C9.13333 10.4477 8.68562 10 8.13333 10H7Z" fill="#869AC7"/>
</svg>
