<svg width="47" height="42" viewBox="0 0 47 42" fill="none" xmlns="http://www.w3.org/2000/svg">
<g clip-path="url(#clip0_180_1033)">
<path d="M5.87508 5.625H41.1251C41.6445 5.625 42.1426 5.80498 42.5098 6.12536C42.8771 6.44573 43.0834 6.88026 43.0834 7.33333V34.6667C43.0834 35.1197 42.8771 35.5543 42.5098 35.8746C42.1426 36.195 41.6445 36.375 41.1251 36.375H5.87508C5.3557 36.375 4.85759 36.195 4.49033 35.8746C4.12307 35.5543 3.91675 35.1197 3.91675 34.6667V7.33333C3.91675 6.88026 4.12307 6.44573 4.49033 6.12536C4.85759 5.80498 5.3557 5.625 5.87508 5.625ZM39.1667 12.8649L23.6411 24.9941L7.83341 12.8273V32.9583H39.1667V12.8649ZM8.83412 9.04167L23.6195 20.4226L38.1915 9.04167H8.83412Z" fill="#FAFAFD"/>
</g>
<defs>
<clipPath id="clip0_180_1033">
<rect y="0.5" width="47" height="41" rx="2" fill="white"/>
</clipPath>
</defs>
</svg>
