<svg width="38" height="33" viewBox="0 0 38 33" fill="none" xmlns="http://www.w3.org/2000/svg">
<g clip-path="url(#clip0_185_970)">
<path fill-rule="evenodd" clip-rule="evenodd" d="M2.59375 14.3074C12.7931 9.8037 19.583 6.81111 22.9925 5.35926C32.6965 1.24074 34.7364 0.52963 36.0477 0.5C36.3391 0.5 36.9803 0.559259 37.4174 0.914815C37.7671 1.21111 37.8545 1.5963 37.9128 1.89259C37.9711 2.18889 38.0293 2.81111 37.9711 3.28519C37.4465 8.91481 35.1735 22.5741 34.0079 28.8556C33.5125 31.5222 32.5508 32.4111 31.6183 32.5C29.5784 32.6778 28.0339 31.137 26.0815 29.8333C22.9925 27.7889 21.2732 26.5148 18.2717 24.5C14.8039 22.1889 17.0477 20.9148 19.0293 18.8407C19.5539 18.3074 28.5002 10.0111 28.675 9.27037C28.7042 9.18148 28.7042 8.82593 28.5002 8.64815C28.2962 8.47037 28.0048 8.52963 27.7717 8.58889C27.4511 8.64815 22.5554 11.9667 13.0263 18.5148C11.6275 19.4926 10.3744 19.9667 9.23792 19.937C7.98485 19.9074 5.59528 19.2259 3.78853 18.6333C1.60295 17.9222 -0.145515 17.537 0.000190102 16.2926C0.0876134 15.6407 0.961847 14.9889 2.59375 14.3074Z" fill="white"/>
</g>
<defs>
<clipPath id="clip0_185_970">
<rect width="38" height="32" fill="white" transform="translate(0 0.5)"/>
</clipPath>
</defs>
</svg>
