<svg width="40" height="47" viewBox="0 0 40 47" fill="none" xmlns="http://www.w3.org/2000/svg">
<path d="M37.6721 11.2926C35.4098 10.799 33.377 9.61445 31.8689 7.93634C30.2951 6.22532 29.2459 3.98784 29.0492 1.52003V0.5H26.8852H21.1475V31.9564C21.1475 35.6087 18.1639 38.603 14.4918 38.603C12.3279 38.603 10.4262 37.583 9.21311 35.9707C8.32787 34.819 7.86885 33.4041 7.86885 31.9235C7.86885 28.2382 10.8525 25.2768 14.5246 25.2768C15.2131 25.2768 15.9016 25.3755 16.5246 25.573V17.5443C15.7705 17.4456 14.9836 17.3798 14.2295 17.4127C6.32787 17.5773 0 24.0265 0 31.9564C0 35.9049 1.57377 39.5243 4.13115 42.1237C6.7541 44.8219 10.4262 46.5 14.5246 46.5C22.5574 46.5 29.0492 39.985 29.0492 31.9564V15.8991C32.1311 18.1037 35.9016 19.4199 40 19.4199V11.5229C39.2131 11.5229 38.4262 11.4571 37.6721 11.2926Z" fill="#FAFAFD"/>
</svg>
