<svg width="45" height="27" viewBox="0 0 45 27" fill="none" xmlns="http://www.w3.org/2000/svg">
<g clip-path="url(#clip0_185_972)">
<path fill-rule="evenodd" clip-rule="evenodd" d="M43.9453 2.24474C44.2617 1.21842 43.9453 0.5 42.4687 0.5H37.5469C36.2812 0.5 35.7187 1.15 35.4023 1.86842C35.4023 1.86842 32.9062 7.82105 29.3555 11.6526C28.1953 12.7816 27.7031 13.1237 27.0703 13.1237C26.7539 13.1237 26.2969 12.7816 26.2969 11.7553V2.24474C26.2969 1.01316 25.9453 0.5 24.8906 0.5H17.1562C16.3828 0.5 15.8906 1.08158 15.8906 1.59474C15.8906 2.75789 17.6484 3.03158 17.8594 6.24737V13.2947C17.8594 14.8342 17.5781 15.1079 16.9453 15.1079C15.293 15.1079 11.2148 9.15526 8.82422 2.31316C8.33203 1.04737 7.875 0.5 6.60937 0.5H1.6875C0.28125 0.5 0 1.15 0 1.86842C0 3.13421 1.65234 9.42895 7.76953 17.7421C11.8477 23.4211 17.5781 26.5 22.7812 26.5C25.9102 26.5 26.2969 25.8158 26.2969 24.6526V20.3421C26.2969 18.9737 26.5781 18.7 27.5977 18.7C28.3359 18.7 29.5664 19.0421 32.4844 21.7789C35.8242 25.0289 36.3867 26.5 38.25 26.5H43.1719C44.5781 26.5 45.2812 25.8158 44.8594 24.4816C44.4023 23.1474 42.8203 21.1974 40.7109 18.8711C39.5508 17.5368 37.8281 16.1342 37.3359 15.4158C36.5977 14.4921 36.8086 14.0816 37.3359 13.2947C37.3359 13.2605 43.3477 5.05 43.9453 2.24474Z" fill="white"/>
</g>
<defs>
<clipPath id="clip0_185_972">
<rect width="45" height="26" fill="white" transform="translate(0 0.5)"/>
</clipPath>
</defs>
</svg>
