<svg width="226" height="34" viewBox="0 0 226 34" fill="none" xmlns="http://www.w3.org/2000/svg">
<path d="M21.5 23.2057L21.4 13.0273L16.2 21.1701H12.6L7.4 13.3975V23.2057H0V0.998291H6.7L14.5 12.8423L22.1 0.998291H28.8L28.9 23.2057H21.5Z" fill="#30529F"/>
<path d="M218.6 23.2057V13.1199L213.4 21.1701H209.8L204.6 13.3974V23.1132H197.3V1.09082H204L211.8 12.8423L219.3 1.09082H225.9L226 23.2057H218.6Z" fill="#30529F"/>
<path d="M55 17.5613V23.2057H35V0.905762H54.6V6.64269H43V9.23356H53.2V14.6929H43V17.6539H55V17.5613Z" fill="#30529F"/>
<path d="M80.8 6.73522H70.5V23.2057H62.5V0.905762H80.8V6.73522Z" fill="#30529F"/>
<path d="M99 19.3194H89.9L88.3 23.2057H80L90.6 0.905762H98.6L109 23.2057H100.6L99 19.3194ZM96.8 13.9526L94.5 8.40078L92.2 13.9526H96.8Z" fill="#30529F"/>
<path d="M133.9 11.8244L141 23.2057H131.9L127.3 15.2481H125V23.2057H116.9V1.09082H125V9.32608H127.5L132.6 1.09082H141L133.9 11.8244Z" fill="#30529F"/>
<path d="M190 2.10872C191.5 2.66391 192.9 3.68175 193.8 4.97718C194.7 6.27262 195.2 7.84564 195.1 9.41867C195.1 10.9917 194.7 12.5647 193.8 13.8602C192.9 15.1556 191.6 16.1734 190 16.7286C188.2 17.4689 186.2 17.7465 184.2 17.7465H180.8V23.2058H172.7V1.09088H184.2C186.2 0.998347 188.2 1.36847 190 2.10872ZM186.2 11.3618C186.8 10.8992 187.1 10.1589 187 9.41867C187 8.67842 186.7 8.03071 186.2 7.47552C185.5 7.01286 184.6 6.73527 183.7 6.8278H180.8V12.0095H183.7C184.6 12.1021 185.5 11.8245 186.2 11.3618Z" fill="#30529F"/>
<path d="M1.9 29.9605H0.9V31.8111H0V27.3696H0.9V29.2202H1.9L3.5 27.3696H4.4L2.6 29.4978L4.6 31.8111H3.6L1.9 29.9605Z" fill="#F28F1B"/>
<path d="M9.4001 27.3696L7.1001 32.2738C7.0001 32.6439 6.7001 32.9215 6.4001 33.1991C6.1001 33.3841 5.8001 33.4767 5.4001 33.4767C5.2001 33.4767 4.9001 33.4767 4.7001 33.3841C4.5001 33.2916 4.3001 33.1991 4.1001 33.1066L4.5001 32.4588C4.7001 32.6439 5.0001 32.7364 5.4001 32.7364C5.6001 32.7364 5.8001 32.6439 5.9001 32.5514C6.1001 32.3663 6.2001 32.1812 6.3001 31.9962L6.5001 31.7186L4.4001 27.3696H5.3001L7.0001 30.8858L8.7001 27.3696H9.4001Z" fill="#F28F1B"/>
<path d="M14.2002 27.3696V31.8111H13.3002V28.1099H11.2002L11.1002 29.1277C11.1002 29.5904 11.0002 30.1456 10.9002 30.6082C10.8002 30.9783 10.7002 31.2559 10.5002 31.5335C10.3002 31.8111 10.0002 31.9036 9.7002 31.9036C9.5002 31.9036 9.3002 31.9037 9.2002 31.8111L9.3002 31.1634H9.5002C9.7002 31.1634 9.9002 31.0709 10.0002 30.8858C10.1002 30.7007 10.2002 30.4232 10.2002 30.1456C10.2002 29.868 10.3002 29.4978 10.3002 29.0352L10.4002 27.3696H14.2002Z" fill="#F28F1B"/>
<path d="M19.4999 29.3128C19.7999 29.5904 19.9999 29.9605 19.9999 30.4232C19.9999 30.8858 19.7999 31.2559 19.4999 31.5335C19.0999 31.8111 18.4999 31.9962 17.9999 31.9036H15.8999V27.4622H16.7999V28.8501H18.1999C18.5999 28.8501 19.0999 28.9427 19.4999 29.3128ZM18.7999 30.9783C18.9999 30.7933 19.0999 30.5157 19.0999 30.3306C19.0999 30.053 18.9999 29.868 18.7999 29.6829C18.4999 29.4978 18.1999 29.4978 17.8999 29.4978H16.7999V31.2559H17.8999C18.1999 31.2559 18.4999 31.1634 18.7999 30.9783Z" fill="#F28F1B"/>
<path d="M24.1002 28.1099H22.3002V31.8111H21.4002V28.1099H19.7002V27.3696H24.1002V28.1099Z" fill="#F28F1B"/>
<path d="M29.4001 27.3696L27.0001 32.2738C26.9001 32.6439 26.6001 32.9215 26.3001 33.1991C26.0001 33.3842 25.7001 33.4767 25.3001 33.4767C25.1001 33.4767 24.8001 33.4767 24.6001 33.3842C24.4001 33.2916 24.2001 33.1991 24.1001 33.1066L24.5001 32.4588C24.7001 32.6439 25.0001 32.7364 25.4001 32.7364C25.6001 32.7364 25.8001 32.6439 25.9001 32.5514C26.1001 32.3663 26.2001 32.1812 26.3001 31.9962L26.4001 31.7186L24.3001 27.2771H25.2001L26.9001 30.7933L28.6001 27.2771L29.4001 27.3696Z" fill="#F28F1B"/>
<path d="M34.0002 27.6472C34.4002 27.8323 34.7002 28.1099 34.9002 28.48C35.1002 28.8501 35.2002 29.2202 35.2002 29.6829C35.2002 30.053 35.1002 30.5157 34.9002 30.8858C34.7002 31.2559 34.4002 31.5335 34.0002 31.7186C33.6002 31.9036 33.2002 31.9962 32.8002 31.9962C32.5002 31.9962 32.1002 31.9037 31.8002 31.8111C31.5002 31.7186 31.3002 31.5335 31.1002 31.2559V33.4767H30.2002V27.3696H31.0002V28.1099C31.2002 27.8323 31.4002 27.6472 31.7002 27.5547C32.0002 27.4622 32.4002 27.3696 32.7002 27.3696C33.2002 27.3696 33.6002 27.4622 34.0002 27.6472ZM33.5002 30.9783C33.7002 30.8858 33.9002 30.7007 34.1002 30.4232C34.4002 29.868 34.4002 29.3128 34.1002 28.7576C34.0002 28.5725 33.8002 28.2949 33.5002 28.2024C33.2002 28.1099 33.0002 28.0173 32.7002 28.0173C32.1002 28.0173 31.6002 28.2949 31.3002 28.7576C31.1002 29.0352 31.1002 29.3128 31.1002 29.5904C31.1002 29.868 31.2002 30.1456 31.3002 30.4232C31.4002 30.7007 31.6002 30.8858 31.9002 30.9783C32.4002 31.2559 33.0002 31.2559 33.5002 30.9783Z" fill="#F28F1B"/>
<path d="M39.7 27.8323C40.1 28.2024 40.3 28.6651 40.2 29.2203V31.9037H39.4V31.3485C39.2 31.5335 39 31.7186 38.8 31.8111C38.5 31.9037 38.2 31.9962 37.8 31.9962C37.3 31.9962 36.9 31.9037 36.5 31.6261C35.9 31.1634 35.9 30.4232 36.4 29.868L36.5 29.7754C36.9 29.4978 37.4 29.4053 38 29.4053H39.4V29.2203C39.4 28.9427 39.3 28.6651 39.1 28.3875C38.8 28.2024 38.5 28.1099 38.1 28.1099C37.8 28.1099 37.5 28.1099 37.3 28.2024C37 28.2949 36.8 28.3875 36.6 28.5725L36.1 27.9248C36.4 27.7398 36.7 27.5547 37 27.4622C37.4 27.3696 37.7 27.2771 38.1 27.2771C38.7 27.2771 39.2 27.4622 39.7 27.8323ZM38.8 31.0709C39 30.9783 39.2 30.7007 39.3 30.5157V29.868H38C37.3 29.868 36.9 30.053 36.9 30.5157C36.9 30.7007 37 30.8858 37.2 31.0709C37.4 31.2559 37.7 31.2559 38 31.2559C38.2 31.2559 38.5 31.1634 38.8 31.0709Z" fill="#F28F1B"/>
<path d="M46.0001 29.9605H45.0001V31.8111H44.1001V27.3696H45.0001V29.2202H46.0001L47.5001 27.3696H48.4001L46.6001 29.4978L48.5001 31.8111H47.5001L46.0001 29.9605Z" fill="#F28F1B"/>
<path d="M50.2 31.6261C49.8 31.441 49.5 31.1634 49.3 30.7933C49.1 30.4232 49 29.9605 49 29.5904C49 29.2203 49.1 28.7576 49.3 28.3875C49.5 28.0173 49.8 27.7398 50.2 27.5547C51 27.1846 52 27.1846 52.8 27.5547C53.2 27.7398 53.5 28.0173 53.7 28.3875C53.9 28.7576 54 29.1277 54 29.5904C54 29.9605 53.9 30.4232 53.7 30.7933C53.5 31.1634 53.2 31.441 52.8 31.6261C52 31.9962 51 31.9962 50.2 31.6261ZM52.3 30.9783C52.5 30.8858 52.7 30.7007 52.9 30.4232C53.2 29.868 53.2 29.3128 52.9 28.7576C52.8 28.5725 52.6 28.2949 52.3 28.2024C51.8 27.9248 51.2 27.9248 50.6 28.2024C50.4 28.2949 50.2 28.48 50 28.7576C49.7 29.3128 49.7 29.868 50 30.4232C50.1 30.7007 50.3 30.8858 50.6 30.9783C51.2 31.2559 51.8 31.2559 52.3 30.9783Z" fill="#F28F1B"/>
<path d="M58.9998 27.6472C59.3998 27.8323 59.6998 28.1099 59.8998 28.48C60.0998 28.8501 60.1998 29.2202 60.1998 29.6829C60.1998 30.053 60.0998 30.5157 59.8998 30.8858C59.6998 31.2559 59.3998 31.5335 58.9998 31.7186C58.5998 31.9036 58.1998 31.9962 57.7998 31.9962C57.4998 31.9962 57.1998 31.9037 56.8998 31.8111C56.5998 31.7186 56.3998 31.5335 56.1998 31.2559V33.4767H55.2998V27.3696H55.9998V28.1099C56.1998 27.8323 56.3998 27.6472 56.6998 27.5547C56.9998 27.4622 57.3998 27.3696 57.6998 27.3696C58.1998 27.3696 58.5998 27.4622 58.9998 27.6472ZM58.4998 30.9783C58.6998 30.8858 58.8998 30.6082 59.0998 30.4232C59.3998 29.868 59.3998 29.3128 59.0998 28.7576C58.9998 28.5725 58.7998 28.3875 58.4998 28.2024C58.1998 28.1099 57.9998 28.0173 57.6998 28.0173C57.0998 28.0173 56.5998 28.2949 56.2998 28.7576C56.1998 29.0352 56.0998 29.3128 56.0998 29.5904C56.0998 29.868 56.1998 30.1456 56.2998 30.4232C56.3998 30.7007 56.5998 30.8858 56.8998 30.9783C57.0998 31.0709 57.3998 31.1634 57.6998 31.1634C57.9998 31.1634 58.2998 31.0709 58.4998 30.9783Z" fill="#F28F1B"/>
<path d="M66.9999 27.3696V31.8111H66.1999V28.5725L64.3999 31.3485H63.9999L62.1999 28.5725V31.8111H61.3999V27.3696H62.2999L64.1999 30.3306L66.0999 27.3696H66.9999Z" fill="#F28F1B"/>
<path d="M72.7998 27.3696V31.8111H71.8998V28.1099H69.7998L69.6998 29.1277C69.6998 29.5904 69.5998 30.1456 69.4998 30.6082C69.3998 30.9783 69.2998 31.2559 69.0998 31.5335C68.8998 31.8111 68.5998 31.9036 68.2998 31.9036C68.0998 31.9036 67.8998 31.9037 67.7998 31.8111V31.1634H67.9998C68.1998 31.1634 68.3998 31.0709 68.4998 30.8858C68.5998 30.7007 68.6998 30.4232 68.6998 30.1456C68.6998 29.868 68.7998 29.4978 68.7998 29.0352L68.8998 27.3696H72.7998Z" fill="#F28F1B"/>
<path d="M78.8002 29.868H74.9002C74.9002 30.2381 75.1002 30.6082 75.5002 30.7933C75.8002 31.0709 76.3002 31.1634 76.7002 31.1634C77.2002 31.1634 77.7002 30.9783 78.1002 30.6082L78.6002 31.1634C78.4002 31.441 78.1002 31.6261 77.8002 31.7186C77.5002 31.8111 77.1002 31.9036 76.7002 31.9036C76.2002 31.9036 75.8002 31.8111 75.4002 31.6261C75.0002 31.441 74.7002 31.1634 74.5002 30.7933C74.1002 30.053 74.1002 29.2203 74.5002 28.48C74.7002 28.1099 75.0002 27.8323 75.4002 27.6472C75.8002 27.4622 76.2002 27.3696 76.6002 27.3696C77.0002 27.3696 77.4002 27.4622 77.8002 27.6472C78.2002 27.8323 78.5002 28.1099 78.6002 28.48C78.8002 28.8501 78.9002 29.2202 78.9002 29.6829C78.8002 29.6829 78.8002 29.7754 78.8002 29.868ZM75.4002 28.3875C75.1002 28.6651 74.9002 28.9427 74.9002 29.3128H78.0002C77.9002 28.5725 77.3002 28.0173 76.5002 28.0173C76.1002 28.0173 75.7002 28.1099 75.4002 28.3875Z" fill="#F28F1B"/>
<path d="M80.1001 27.3696H81.0001V29.2202H83.7001V27.3696H84.6001V31.8111H83.7001V29.9605H81.0001V31.8111H80.1001V27.3696Z" fill="#F28F1B"/>
<path d="M86.2998 27.3696H87.1998V30.6082L90.0998 27.3696H90.8998V31.8111H89.9998V28.5725L87.0998 31.8111H86.2998V27.3696Z" fill="#F28F1B"/>
<path d="M96.4002 27.3696V31.8111H95.6002V30.4232H94.1002L93.1002 31.8111H92.2002L93.4002 30.3306C93.1002 30.2381 92.8002 30.053 92.6002 29.868C92.4002 29.5904 92.3002 29.3128 92.3002 29.0352C92.3002 28.5725 92.5002 28.2024 92.9002 27.9248C93.4002 27.6472 93.9002 27.4622 94.5002 27.5547L96.4002 27.3696ZM93.4002 29.5904C93.7002 29.7754 94.0002 29.868 94.3002 29.7754H95.6002V28.0173H94.3002C93.5002 28.0173 93.1002 28.2949 93.1002 28.9427C93.1002 29.2203 93.2002 29.4978 93.4002 29.5904Z" fill="#F28F1B"/>
<path d="M109.8 27.3696H102.3V31.8111H109.8V27.3696Z" fill="#30529F"/>
<path d="M156.1 0.165527C148.7 0.165527 142.6 5.53233 142.6 12.102C142.6 18.6717 148.6 24.0385 156.1 24.0385C163.6 24.0385 169.6 18.7643 169.6 12.102C169.6 5.4398 163.6 0.165527 156.1 0.165527ZM156.1 17.2838C152.6 17.2838 149.7 14.9705 149.7 12.102C149.7 9.23357 152.5 6.92029 156.1 6.92029C159.7 6.92029 162.4 9.23357 162.4 12.102C162.4 14.9705 159.6 17.2838 156.1 17.2838Z" fill="#30529F"/>
</svg>
